<svg width="22" height="22" viewBox="0 0 22 22" fill="none" xmlns="http://www.w3.org/2000/svg">
<g id="my orders">
<path id="Icon" d="M15.5833 8.39473L15.5138 7.45768C15.4501 6.59928 14.7083 5.93421 13.8146 5.93421H11.9937M5.5 17.4167H4.45365C3.465 17.4167 2.68398 16.609 2.75442 15.6594L3.36283 7.45769C3.42651 6.59928 4.16831 5.93421 5.06207 5.93421H6.88298M6.88298 5.93421V4.29385C6.88298 2.93494 8.02705 1.83333 9.43833 1.83333C10.8496 1.83333 11.9937 2.93494 11.9937 4.29385V5.93421M6.88298 5.93421H11.9937M15.5833 13.75C15.5833 14.7625 14.7625 15.5833 13.75 15.5833C12.7375 15.5833 11.9167 14.7625 11.9167 13.75M10.0833 19.25H17.4167C18.4292 19.25 19.25 18.4292 19.25 17.4167V12.8333C19.25 11.8208 18.4292 11 17.4167 11H10.0833C9.07081 11 8.25 11.8208 8.25 12.8333V17.4167C8.25 18.4292 9.07081 19.25 10.0833 19.25Z" stroke="#807D7E" stroke-width="1.5" stroke-linecap="round"/>
</g>
</svg>
