<svg width="22" height="33" viewBox="0 0 22 33" fill="none" xmlns="http://www.w3.org/2000/svg">
<g id="Group">
<path id="Vector" d="M18.9334 0.931152H3.02932C1.72644 0.931152 0.670654 1.9869 0.670654 3.28978V30.2009C0.670654 31.5038 1.72644 32.5596 3.02932 32.5596H18.9334C20.2363 32.5596 21.2921 31.5038 21.2921 30.2009V3.28978C21.2921 2.00937 20.2138 0.931152 18.9334 0.931152Z" fill="white"/>
<path id="Vector_2" d="M20.1466 4.72754H1.79395V26.9214H20.1466V4.72754Z" fill="#404040"/>
<g id="Group_2">
<g id="Group_3">
<path id="Vector_3" d="M14.7328 2.34619H7.20758C6.91556 2.34619 6.646 2.59329 6.646 2.90778C6.646 3.22226 6.89309 3.46936 7.20758 3.46936H14.7328C15.0249 3.46936 15.2944 3.22226 15.2944 2.90778C15.2944 2.61575 15.0473 2.34619 14.7328 2.34619Z" fill="#6639A6"/>
</g>
</g>
<path id="Vector_4" d="M9.18457 29.5944C9.18457 28.606 9.99326 27.7749 10.9816 27.7749C11.97 27.7749 12.8012 28.5836 12.8012 29.5944C12.8012 30.5828 11.9925 31.3915 10.9816 31.3915C9.99326 31.4139 9.18457 30.6053 9.18457 29.5944Z" fill="#6639A6"/>
</g>
</svg>
