<svg width="17" height="17" viewBox="0 0 17 17" fill="none" xmlns="http://www.w3.org/2000/svg">
<path d="M1 4.75H16M4 12.25H7M10 12.25H13M3.4 16H13.6C14.4401 16 14.8601 16 15.181 15.7956C15.4632 15.6159 15.6927 15.329 15.8365 14.9762C16 14.5751 16 14.0501 16 13V4C16 2.9499 16 2.42485 15.8365 2.02377C15.6927 1.67096 15.4632 1.38413 15.181 1.20436C14.8601 1 14.4401 1 13.6 1H3.4C2.55992 1 2.13988 1 1.81901 1.20436C1.53677 1.38413 1.3073 1.67096 1.16349 2.02377C1 2.42485 1 2.9499 1 4V13C1 14.0501 1 14.5751 1.16349 14.9762C1.3073 15.329 1.53677 15.6159 1.81901 15.7956C2.13988 16 2.55992 16 3.4 16Z" stroke="#3C4242" stroke-width="1.1" stroke-linecap="round"/>
</svg>
