<svg width="20" height="16" viewBox="0 0 20 16" fill="none" xmlns="http://www.w3.org/2000/svg">
<path d="M11.8 12.6667V1.46667C11.8 1.20893 11.5985 1 11.35 1H1.45C1.20147 1 1 1.20893 1 1.46667V12.6667C1 12.9244 1.20147 13.1333 1.45 13.1333H2.8M11.8 12.6667C11.8 12.9244 11.5985 13.1333 11.35 13.1333H6.4M11.8 12.6667V4.26667C11.8 4.00893 12.0015 3.8 12.25 3.8H15.2136C15.333 3.8 15.4474 3.84917 15.5318 3.93668L18.8682 7.39665C18.9526 7.48417 19 7.60287 19 7.72663V12.6667C19 12.9244 18.7985 13.1333 18.55 13.1333H17.2M11.8 12.6667C11.8 12.9244 12.0015 13.1333 12.25 13.1333H13.6M2.8 13.1333C2.8 14.1643 3.60589 15 4.6 15C5.59411 15 6.4 14.1643 6.4 13.1333M2.8 13.1333C2.8 12.1024 3.60589 11.2667 4.6 11.2667C5.59411 11.2667 6.4 12.1024 6.4 13.1333M13.6 13.1333C13.6 14.1643 14.4059 15 15.4 15C16.3941 15 17.2 14.1643 17.2 13.1333M13.6 13.1333C13.6 12.1024 14.4059 11.2667 15.4 11.2667C16.3941 11.2667 17.2 12.1024 17.2 13.1333" stroke="#3C4242" stroke-width="1.1"/>
</svg>
