<svg width="20" height="20" viewBox="0 0 20 20" fill="none" xmlns="http://www.w3.org/2000/svg">
<g id="twitter">
<path id="twitter_2" d="M6.27767 20C3.96696 20 1.81298 19.1818 0 17.7701C1.53928 17.8914 4.25576 17.601 5.94541 15.6389C3.40363 15.497 2.25733 13.1237 2.10781 12.1095C2.32378 12.211 3.35379 12.3327 3.93524 12.0487C1.01136 11.1562 0.562805 8.03245 0.662483 7.07911C1.21071 7.54564 2.14104 7.70791 2.50652 7.66734C-0.218005 5.29412 0.762161 1.72414 1.24394 0.953347C3.19916 4.25101 6.12943 6.1031 9.75456 6.20612C9.68621 5.84118 9.65011 5.46124 9.65011 5.07099C9.65011 2.27036 11.5096 0 13.8034 0C15.0018 0 16.0817 0.619786 16.8398 1.61116C17.6406 1.3827 18.8459 0.847885 19.4352 0.385396C19.1382 1.68357 18.2135 2.76651 17.6542 3.16789C17.6589 3.18155 17.6497 3.15418 17.6542 3.16789C18.1455 3.07742 19.4748 2.76641 20 2.33266C19.7403 3.06196 18.76 4.27455 17.9555 4.95341C18.1052 12.9896 13.0546 20 6.27767 20Z" fill="#47ACDF"/>
</g>
</svg>
